<?xml version="1.0" encoding="utf-8"?>
<!DOCTYPE svg PUBLIC "-//W3C//DTD SVG 1.1//EN" "http://www.w3.org/Graphics/SVG/1.1/DTD/svg11.dtd">
<svg version="1.1" xmlns="http://www.w3.org/2000/svg" width="300px" height="60px" viewBox="0 0 300 60" preserveAspectRatio="xMidYMid meet">
 <g fill="#ffffff">
  <path d="M124.85 57.10 c-2.50 -2.75 0.50 -7 7.45 -10.50 1.55 -0.80 2.20 -1.55 2.85 -3.20 1 -2.80 1.95 -6.45 1.70 -6.70 -0.10 -0.10 -0.90 0.80 -1.80 1.95 -2.15 2.95 -4.15 4.05 -6.40 3.60 -1.20 -0.20 -2 -0.75 -2.55 -1.80 -0.45 -0.80 -1 -1.45 -1.20 -1.45 -0.20 0 -0.80 0.65 -1.40 1.50 -2.30 3.25 -7.25 5.55 -10.25 4.80 -1.85 -0.45 -3.25 -2.25 -3.25 -4.15 0 -2.05 -0.40 -2.05 -2.30 -0.10 -1.65 1.80 -4.85 3.40 -6.75 3.45 -2.10 0 -3.95 -1.75 -3.95 -3.80 0 -0.95 -0.10 -1.70 -0.25 -1.70 -0.10 0 -1.15 1 -2.25 2.20 -2.35 2.50 -4.20 3.45 -6.50 3.20 -2.15 -0.20 -3.55 -2.10 -3.65 -4.85 -0.05 -1.10 -0.20 -2.05 -0.35 -2.05 -0.15 0.05 -0.85 0.90 -1.55 1.95 -2.05 2.95 -4.60 4.65 -7.35 4.95 -3.05 0.25 -3.95 -0.60 -4.55 -4.40 -0.05 -0.10 -1.25 0.95 -2.75 2.45 -2.05 2 -3.10 2.70 -4.60 2.90 -2.55 0.35 -4.25 -0.95 -4.45 -3.35 -0.10 -0.95 -0.20 -1.85 -0.20 -1.95 -0.05 -0.10 -0.95 0.65 -2.10 1.65 -2.30 2.10 -3.85 2.80 -6.15 2.80 -2.10 0 -3.30 -1.30 -3.30 -3.65 0 -1.95 -0.75 -2.50 -1.25 -0.90 -0.50 1.70 -4.10 4.55 -5.70 4.55 -1.60 0 -3.35 -1.75 -3.90 -3.95 -0.80 -3.20 2.90 -13.55 4.85 -13.55 1.60 0 1.65 0.95 0.25 4.05 -0.70 1.65 -1.55 4.30 -1.85 5.90 -0.50 2.55 -0.45 3.15 0.30 4.25 0.45 0.70 1.20 1.30 1.60 1.30 1.35 0 3.95 -3.30 6.70 -8.55 1.40 -2.75 2.95 -5.15 3.35 -5.30 0.40 -0.15 1.05 0.05 1.50 0.45 0.65 0.70 0.65 1.05 -0.35 3.20 -2.45 5.50 -3.20 9.95 -1.75 10.50 0.40 0.20 1.35 0.15 2.05 0 1.55 -0.40 6.20 -4.90 6.20 -6.05 0 -0.40 0.25 -0.75 0.50 -0.75 0.30 0 0.50 -0.25 0.50 -0.50 0 -0.85 3.70 -5.65 5.80 -7.45 4.60 -4.05 10 -4.65 12.30 -1.35 0.70 0.95 0.40 2.65 -0.50 3.45 -1.10 1 -1.60 0.65 -1.60 -1 0 -4.45 -4.20 -4.15 -8.35 0.55 -5.40 6.15 -7.10 15.65 -2.30 13.10 1.80 -0.90 4.40 -3.70 7.40 -7.80 1.30 -1.80 2.55 -3.25 2.80 -3.20 1.30 0.15 1.45 0.25 1.45 1.10 0 0.45 -0.70 2.20 -1.50 3.80 -1.75 3.45 -1.85 4.35 -0.55 5.50 0.85 0.80 1.10 0.80 2.40 0.10 3.80 -1.95 6.55 -5.90 8.90 -12.80 3.45 -9.85 10.50 -22.70 13.55 -24.75 1.30 -0.85 1.40 -0.85 2.05 0.05 2.75 3.80 -2.95 17.30 -11.05 26.05 l-2.85 3.10 -0.10 3.75 c-0.10 2.95 0.10 3.95 0.75 4.60 2.20 2.25 5.90 -1.30 9.85 -9.55 2.60 -5.50 4.70 -8.25 6.15 -8.25 1.30 0 0.85 2.05 -1.55 6.70 -2.95 5.70 -3.70 9.05 -2.30 10.45 1.10 1.10 2.65 1.05 4.55 -0.10 2.50 -1.50 4.10 -4.10 5.90 -9.30 1.60 -4.60 1.65 -4.90 0.75 -5.10 -1.35 -0.40 -1.15 -1 0.45 -1.30 1.10 -0.25 1.55 -0.80 2.55 -3.45 1.30 -3.35 3.35 -7.10 5.35 -9.75 1.25 -1.60 2.85 -2.15 3.45 -1.15 0.35 0.60 -1.20 3.95 -4.50 9.70 -1.25 2.15 -2.25 4.10 -2.25 4.35 0 0.25 2.15 0.45 4.80 0.45 2.60 0 4.65 0.20 4.50 0.45 -0.15 0.20 -2.45 0.55 -5.15 0.75 -2.90 0.20 -5 0.60 -5.25 0.95 -1.10 1.60 -2.60 7.90 -2.65 10.75 0 2.60 0.20 3.30 0.95 3.90 1.50 1.10 3.40 0.85 5.85 -0.70 3.20 -2.10 3.85 -3 6 -8.65 2.05 -5.45 3.05 -6.95 4.55 -6.95 1.50 0 1.50 1.05 0.10 4.50 -0.70 1.75 -1.40 4.40 -1.55 5.80 -0.25 2.20 -0.15 2.65 0.65 3.10 1.40 0.70 2.75 0 5.35 -2.90 1.55 -1.75 2.60 -3.50 3.10 -5.25 0.55 -1.80 1.15 -2.80 2.05 -3.25 2.50 -1.35 2.40 0.90 -0.50 10.25 -0.70 2.15 -1.15 4.05 -1.05 4.15 0.80 0.80 5.95 -3.85 7.50 -6.85 0.40 -0.85 1 -1.55 1.25 -1.55 0.90 0 -1.50 4 -3.55 6 -1.15 1.10 -2.95 2.50 -4.10 3.10 -1.70 0.95 -2.40 1.90 -4.25 5.60 -2.85 5.70 -5.75 8.80 -8.20 8.80 -1.05 0 -2.05 -0.35 -2.55 -0.90z m4.50 -2.45 c1.70 -1.90 4.50 -7 4.05 -7.40 -0.15 -0.15 -1.60 0.65 -3.30 1.70 -3.55 2.30 -5 4.55 -4.15 6.35 0.75 1.65 1.40 1.50 3.40 -0.65z m-36.85 -27.50 c4.85 -6.55 10.35 -19.30 7.90 -18.40 -1.05 0.40 -4.20 5.35 -6.75 10.65 -2.70 5.70 -4.75 11.10 -4.10 11.10 0.25 0 1.60 -1.50 2.95 -3.35z"/>
  <path d="M25.75 49.15 c-0.55 -0.15 -2.25 -1.10 -3.80 -2.15 l-2.85 -1.90 -2.15 0.75 c-4.15 1.40 -8.95 -0.65 -8.95 -3.85 0 -3.35 4.10 -3.95 9.30 -1.45 l3.25 1.60 1.25 -1.20 c1.90 -1.75 5.95 -10.55 7.25 -15.70 1.60 -6.20 1.60 -13.15 0.10 -16.05 -1.20 -2.25 -3.55 -3.70 -6 -3.70 -0.75 0 -2.55 0.55 -3.90 1.20 -7.20 3.30 -13.15 15.60 -13.50 27.80 -0.10 2.90 -0.20 5.30 -0.20 5.40 -0.05 0.05 -0.50 -0.10 -1.10 -0.40 -3.05 -1.65 -3.30 -10.35 -0.50 -18 1.70 -4.60 5.15 -10.10 7.80 -12.45 7.60 -6.65 17.25 -6.35 20.85 0.60 1.50 2.90 1.80 9.45 0.70 14.50 -1.35 6.05 -5.05 13 -9.05 17 -1 1 -1.70 2.05 -1.55 2.30 0.55 0.85 4.95 2.05 7.65 2.05 2.60 0 2.60 0 2.05 1.25 -0.90 2 -3.85 3.05 -6.65 2.40z m-9.20 -4.65 c0.50 -0.30 0.95 -0.70 0.95 -0.90 0 -0.85 -4.45 -3.10 -6.20 -3.10 -1.55 0 -1.80 0.15 -1.80 1.15 0 0.60 0.20 1.35 0.40 1.65 1.05 1.55 4.70 2.20 6.65 1.20z"/>
  <path d="M159.75 46.50 c0.30 -0.90 2.90 -6.80 13.80 -30.90 3.10 -6.85 3.55 -9.20 1.80 -9.50 -3 -0.60 -6 2.90 -6.80 7.95 -0.60 3.65 -0.80 3.90 -1.95 2.80 -0.60 -0.60 -0.85 -1.70 -0.85 -3.55 0 -2.10 0.25 -3 1.40 -4.45 2 -2.65 5.45 -4.50 8.35 -4.55 2.80 -0.05 4.15 0.90 5.10 3.65 0.70 2.05 0.85 10.85 0.30 21.30 l-0.40 7 0.95 -2.50 c1.70 -4.65 4.90 -11.05 8.80 -17.80 5.30 -9.20 6.65 -10.90 8.45 -10.95 1.15 0 1.35 0.20 1.15 0.90 -4 12.05 -7.10 29.10 -6.75 37.15 0.15 3.85 0.05 4.45 -0.65 4.45 -0.45 0 -1.35 -0.45 -2 -0.95 -1.15 -0.90 -1.20 -1.25 -1.15 -6.15 0.10 -5.40 1.10 -11.45 3.60 -21.30 0.75 -3.10 1.25 -5.60 1.10 -5.60 -0.90 0 -8.30 14.90 -11.95 24.15 -1.30 3.15 -2.45 5.35 -2.85 5.35 -0.35 0 -1.05 -0.55 -1.50 -1.30 -0.75 -1.10 -0.80 -2.50 -0.50 -13.05 0.20 -6.50 0.45 -13 0.60 -14.45 0.50 -5.20 0.35 -4.90 -9.75 19.10 -1.65 3.90 -3.45 8 -4 9.05 -1.85 3.70 -5.15 6.85 -4.30 4.15z"/>
  <path d="M245.75 45.15 c-2 -0.55 -3.65 -2.15 -4.10 -4 -0.45 -1.80 -0.55 -1.90 -2.35 -1.75 -2.30 0.20 -3.90 -0.80 -4.80 -2.85 -0.60 -1.50 -1.50 -2.10 -1.50 -1 0 0.85 -3.05 5 -5.35 7.30 -1.65 1.65 -2.50 2.15 -3.75 2.15 -2.15 0 -3 -1.40 -3.20 -5 -0.10 -1.50 -0.15 -2.80 -0.20 -2.90 0 -0.10 -0.75 0.35 -1.60 1 -1.20 0.80 -2.40 1.15 -4.35 1.25 -2.30 0.05 -2.90 0.30 -4.50 1.80 -2.80 2.65 -4.10 3.35 -6.35 3.35 -3 0 -3.95 -1.25 -3.95 -5.20 0.05 -3.65 2.05 -7.90 4.40 -9.10 2 -1.05 2.50 -0.70 1.55 1.05 -0.45 0.85 -1.25 2.70 -1.75 4.20 -2.35 6.65 -0.05 9 4.80 4.85 l1.95 -1.65 -1.35 -2.05 c-2.50 -3.80 -2.40 -8.45 0.20 -11.10 1.70 -1.70 4 -2 5.70 -0.70 0.80 0.60 1 1.30 1 3.85 0 2.55 -0.30 3.65 -1.65 6.05 -0.85 1.65 -1.50 3.10 -1.35 3.25 0.60 0.60 3.70 0.20 5 -0.65 1.50 -1 2.75 -3.55 2.75 -5.75 0 -1.55 0.95 -2.25 2.30 -1.70 0.70 0.25 0.75 1 0.45 5.65 -0.40 5.95 -0.15 7.50 1.25 7.50 2.35 0 8.15 -9.20 8.80 -13.85 0.40 -3.05 1.75 -4.70 3.10 -3.85 1.20 0.75 1.30 2 0.45 3.85 -2.50 5.30 -0.55 11.25 2.80 8.75 0.45 -0.35 1.50 -2.05 2.35 -3.80 2.60 -5.40 7.35 -9.75 11.45 -10.40 1.70 -0.25 2.15 -0.15 3.30 1 1.10 1.10 1.30 1.65 1.05 2.90 -0.75 3.80 -5.25 7.75 -10.25 9.05 -3.25 0.85 -3.70 1.30 -3.30 3.50 1 5.35 7.85 4.60 13.20 -1.45 1.15 -1.30 2.05 -2.55 2.05 -2.80 0 -0.30 0.40 -1.10 0.90 -1.80 1.55 -2.30 3.10 -6.65 3.10 -8.80 0 -2.25 1.10 -4.30 2.30 -4.30 0.65 0 0.70 0.40 0.45 1.95 -0.30 1.85 -0.20 2 1.95 3.80 3.30 2.70 3.70 4.30 2 8.85 -0.70 2 -1.35 4.20 -1.40 4.85 -0.10 1.75 1.20 2.35 3.25 1.50 2.20 -0.90 5.45 -3.85 5.45 -4.90 0 -0.95 1.75 -2.70 3.10 -3.20 1.30 -0.45 4.95 -6.20 5.70 -9 1.05 -4.10 2.70 -4.35 2.70 -0.40 0 1.35 0.55 4.20 1.25 6.35 0.70 2.15 1.25 5.10 1.25 6.55 0 2.30 0.15 2.65 0.95 2.65 1.05 0 3.75 -2.35 5.15 -4.50 0.60 -0.85 0.85 -1 0.85 -0.45 0.05 1.20 -3.20 4.75 -5.05 5.45 -0.90 0.35 -2.45 1.55 -3.40 2.65 -1.60 1.80 -2.10 2 -4.65 2.25 -4 0.30 -5.60 -0.50 -7.15 -3.50 l-1.25 -2.45 -1.25 1.50 c-1.40 1.70 -4.95 3.55 -6.80 3.55 -0.70 0 -1.90 -0.50 -2.65 -1.10 -1.20 -0.90 -1.35 -1.35 -1.15 -3.15 0.15 -1.15 0.85 -3.60 1.60 -5.45 0.85 -2.10 1.25 -3.85 1.10 -4.60 -0.30 -1.15 -2.10 -3.20 -2.85 -3.20 -0.20 0 -0.70 0.95 -1.20 2.15 -2.55 6.40 -3 7.20 -5.90 10.60 -3.55 4.05 -9 6.40 -12.60 5.40z m40.75 -1.90 c1.85 -0.95 1.95 -2.05 0.25 -2.45 -0.70 -0.20 -2.15 -1.10 -3.20 -2.05 -2.65 -2.40 -3.25 -2.30 -2.90 0.60 0.20 1.80 0.60 2.65 1.70 3.50 1.65 1.35 2.20 1.40 4.15 0.40z m2 -5.65 c0 -3.30 -1 -7.95 -1.80 -8.65 -0.55 -0.45 -0.70 -0.40 -0.70 0.10 0 0.40 -0.90 1.85 -2 3.20 -1.10 1.40 -2 2.75 -2 3.05 0 0.95 4.40 4.70 5.50 4.70 0.85 0 1 -0.30 1 -2.40z m-75.20 -3.80 c1.30 -2.85 1.70 -7 0.80 -7.90 -0.80 -0.80 -2.55 0.05 -3.35 1.60 -0.40 0.80 -0.75 2.40 -0.75 3.55 0 2.30 0.95 5.45 1.65 5.45 0.20 0 0.95 -1.20 1.65 -2.70z m36.45 0.35 c3.90 -2.45 6.25 -5.30 6.25 -7.55 0 -2.40 -3.25 -1.35 -6.35 2.05 -2 2.15 -4.15 5.70 -4.15 6.85 0 0.75 1.80 0.20 4.25 -1.35z"/>
  <path d="M105.55 18.80 c-0.85 -1.05 0.05 -2.50 2 -3.30 2.75 -1.15 4.40 0.80 2.45 2.90 -1.20 1.25 -3.55 1.45 -4.45 0.40z"/>
 </g>
</svg>