<?xml version="1.0" encoding="utf-8"?>
<!DOCTYPE svg PUBLIC "-//W3C//DTD SVG 1.1//EN" "http://www.w3.org/Graphics/SVG/1.1/DTD/svg11.dtd">
<svg version="1.1" xmlns="http://www.w3.org/2000/svg" width="300px" height="60px" viewBox="0 0 300 60" preserveAspectRatio="xMidYMid meet">
 <g fill="#000000">
  <path d="M124.85 57.10 c-2.45 -2.70 0.50 -7 7 -10.25 2.50 -1.30 2.60 -1.45 3.85 -5.20 1.75 -5.25 1.65 -5.70 -0.70 -2.80 -1.10 1.40 -2.65 2.80 -3.45 3.15 -2.05 0.80 -4.40 0.20 -5.40 -1.40 -0.45 -0.75 -0.90 -1.45 -1 -1.55 -0.10 -0.15 -0.95 0.70 -1.90 1.85 -2.45 2.80 -6.60 4.80 -9.35 4.45 -2.60 -0.35 -3.85 -1.85 -3.90 -4.60 l0 -1.95 -2.10 2.05 c-3.60 3.55 -7.20 4.50 -9.60 2.60 -1 -0.80 -1.30 -1.45 -1.30 -3.05 l0 -2 -2.25 2.50 c-2.50 2.80 -4.35 3.75 -6.75 3.50 -2.10 -0.20 -3.45 -2 -3.65 -4.75 -0.05 -1.20 -0.20 -2.15 -0.35 -2.15 -0.15 0.05 -0.85 0.90 -1.55 1.95 -2.05 2.95 -4.60 4.65 -7.40 4.95 -2.15 0.20 -2.50 0.05 -3.45 -1.15 -0.60 -0.75 -1.10 -1.85 -1.10 -2.45 0 -0.85 -0.45 -0.55 -2.50 1.55 -2.75 2.85 -5.10 3.70 -7.30 2.70 -1.35 -0.60 -2.40 -2.75 -2.05 -4.15 0.35 -1.30 -0.25 -1.10 -1.90 0.60 -1.80 1.85 -4.20 3 -6.35 3 -2.35 0 -3.40 -1.25 -3.45 -4.05 0 -1.95 -0.10 -2.10 -0.60 -1.20 -0.35 0.55 -1.55 1.95 -2.70 3.15 -1.75 1.80 -2.35 2.15 -3.75 2 -2 -0.20 -3.90 -2.75 -3.90 -5.25 0 -2.25 1.30 -6.75 2.85 -9.80 0.95 -1.95 1.40 -2.40 2.30 -2.25 1.40 0.20 1.35 1.25 -0.30 5.15 -1.85 4.40 -2.20 7.70 -0.95 9.25 0.85 1.05 1.15 1.15 2.20 0.65 1.40 -0.65 3.95 -4.25 6.70 -9.55 2 -3.95 2.85 -4.65 4.05 -3.50 0.65 0.70 0.65 0.95 -0.05 2.45 -1.45 3.10 -2.80 7.60 -2.80 9.30 0 3.20 2.85 2.85 6.55 -0.85 1.35 -1.35 2.45 -2.80 2.45 -3.25 0 -0.40 0.15 -0.75 0.40 -0.75 0.20 0 0.65 -0.65 1 -1.40 1.10 -2.55 5.95 -7.45 8.70 -8.80 3.55 -1.80 6.05 -1.75 7.95 0.15 1.65 1.70 1.85 3.05 0.55 4.20 -1.35 1.20 -1.60 1.05 -1.60 -0.95 0 -6.35 -7.80 -2.60 -11.80 5.65 -1.55 3.15 -2.20 7.55 -1.20 8.15 1.70 1.05 4.55 -1.20 9.10 -7.25 1.70 -2.20 3.25 -4 3.45 -3.95 0.25 0.05 0.70 0.10 0.95 0.15 0.85 0.10 0.55 1.70 -1 4.75 -1.75 3.45 -1.85 4.35 -0.55 5.50 0.90 0.80 1.10 0.80 2.40 0.10 1.90 -1.05 3.10 -2.15 4.90 -4.55 1.90 -2.50 2.40 -3.45 4.25 -8.90 2.95 -8.45 8.65 -19.10 12.20 -22.85 2.15 -2.30 2.55 -2.40 3.35 -0.95 2.05 3.85 -2.70 15.75 -9.55 23.80 -1.50 1.80 -3.15 3.75 -3.65 4.35 -0.70 0.85 -0.95 2.10 -1 4.75 -0.10 3.10 0.05 3.75 0.85 4.35 0.55 0.40 1.30 0.70 1.65 0.70 1.45 0 5.20 -4.20 6.85 -7.70 0.90 -1.95 2.15 -4.60 2.80 -5.95 1.05 -2.25 3.50 -4.85 4.55 -4.85 1.35 0 0.90 2 -1.50 6.70 -2.95 5.70 -3.70 9.05 -2.30 10.45 1.10 1.10 2.65 1.05 4.55 -0.10 2.55 -1.55 4.30 -4.35 6 -9.40 1.45 -4.50 1.50 -4.80 0.65 -5 -1.30 -0.35 -1.20 -1.05 0.20 -1.25 1.10 -0.15 1.25 -0.40 4.50 -7.20 2.80 -5.90 5.95 -9.05 7.10 -7.20 0.35 0.60 -1.15 3.85 -4.50 9.75 -1.20 2.20 -2.25 4.15 -2.25 4.40 0 0.20 2.15 0.35 4.80 0.35 2.60 0 4.65 0.20 4.50 0.45 -0.15 0.20 -2.50 0.60 -5.25 0.75 l-5 0.40 -1 2.65 c-1.30 3.40 -2.25 8.90 -1.85 10.45 0.70 2.85 2.95 3.50 6.25 1.80 2.90 -1.45 4.85 -4.20 6.65 -9.15 1.75 -4.95 3 -6.85 4.45 -6.85 1.55 0 1.55 1.05 0.15 4.50 -1.70 4.15 -2.20 8.70 -1 9.15 1.35 0.55 3 -0.45 5.45 -3.15 1.50 -1.65 2.60 -3.50 3.10 -5.10 0.75 -2.50 1.85 -3.85 3.20 -3.90 1.05 0 0.45 4.30 -1.40 10 -0.80 2.60 -1.40 4.80 -1.25 4.95 0.10 0.10 1.15 -0.45 2.30 -1.25 1.90 -1.30 3.95 -3.70 5.75 -6.50 0.50 -0.75 0.60 -0.80 0.60 -0.15 0.05 0.40 -0.65 1.85 -1.50 3.10 -1.45 2.25 -3.25 3.75 -6.75 5.85 -1.10 0.60 -2.15 2.15 -3.65 5.25 -2.75 5.55 -5.70 8.75 -8.15 8.75 -1.05 0 -2.05 -0.35 -2.55 -0.90z m5.50 -3.80 c1.65 -2.30 3.35 -5.75 3 -6.10 -0.10 -0.10 -1.55 0.70 -3.25 1.75 -3.55 2.30 -5 4.55 -4.15 6.35 0.45 1.05 0.65 1.10 1.75 0.65 0.65 -0.30 1.85 -1.50 2.65 -2.65z m-39 -24.65 c4.35 -5.65 8.85 -14.25 9.45 -18.05 0.45 -2.95 -0.35 -2.65 -2.80 1.05 -3.50 5.15 -9.65 18.85 -8.50 18.85 0.25 0 1.05 -0.85 1.85 -1.85z"/>
  <path d="M25.40 49 c-0.80 -0.25 -2.50 -1.20 -3.80 -2.20 l-2.40 -1.75 -2.25 0.75 c-3.15 1.10 -5.85 0.65 -7.55 -1.30 -2.60 -2.85 -1.35 -5.50 2.55 -5.50 1.35 0 3.30 0.55 5.40 1.60 l3.30 1.60 1.65 -1.90 c3.10 -3.60 6.05 -10.90 7.50 -18.75 1.45 -7.75 0.15 -13.50 -3.50 -15.25 -2.30 -1.10 -4.10 -1 -7.05 0.40 -7.20 3.30 -13.10 15.50 -13.50 27.80 -0.10 2.90 -0.20 5.30 -0.20 5.40 -0.05 0.05 -0.50 -0.10 -1.10 -0.40 -1.60 -0.85 -2.45 -3.55 -2.45 -7.60 0.05 -12.50 8.70 -25.40 18.35 -27.40 5.30 -1.10 10 0.85 12.25 5.15 1.50 2.85 1.80 9.75 0.70 14.60 -1.25 5.25 -4.80 12.15 -8.10 15.75 -1.60 1.70 -2.65 3.20 -2.40 3.45 1.10 1 4.95 2.05 7.45 2.05 1.50 0 2.75 0.20 2.75 0.45 0 0.25 -0.80 1.15 -1.75 2 -1.85 1.60 -3.25 1.85 -5.85 1.05z m-8.85 -4.50 c1.35 -0.75 1.20 -1.10 -1.25 -2.60 -3.45 -2.20 -6.85 -1.70 -5.70 0.85 0.90 2 4.70 2.95 6.95 1.75z"/>
  <path d="M159.50 47.10 c0 -0.20 2.50 -5.90 5.55 -12.60 3 -6.75 6.85 -15.20 8.50 -18.80 3.20 -7.10 3.55 -8.95 1.95 -9.45 -2.90 -0.90 -7 3.80 -7 8 0 1.10 -0.25 2.35 -0.50 2.75 -0.40 0.65 -0.60 0.65 -1.35 -0.15 -0.65 -0.65 -0.90 -1.65 -0.90 -3.55 0 -2.30 0.25 -3 1.55 -4.65 2.80 -3.45 7.75 -5.40 10.45 -4.10 2.70 1.25 3.45 3.80 3.50 11.20 0 3.60 -0.15 9.65 -0.40 13.50 l-0.35 7 0.95 -2.60 c1.65 -4.45 6.30 -13.65 10.05 -19.90 4.75 -7.85 5.45 -8.70 7.15 -8.70 0.75 -0.05 1.35 0.05 1.35 0.20 0 0.10 -0.55 1.90 -1.25 3.95 -1.35 4.10 -4.40 18.65 -5.30 25.45 -0.30 2.40 -0.45 6.30 -0.40 8.65 0.20 3.75 0.10 4.20 -0.65 4.20 -1.35 0 -2.80 -1.75 -3.20 -3.75 -0.55 -2.90 0.65 -11.90 2.80 -20.90 1.10 -4.60 2.10 -8.60 2.25 -8.85 0.20 -0.30 0.10 -0.50 -0.15 -0.50 -1.05 0 -8 13.80 -11.85 23.75 -1.65 4.10 -2.40 5.55 -3.15 5.65 -2 0.30 -2.25 -1.95 -1.90 -15.55 0.20 -6.95 0.50 -13.35 0.65 -14.20 0.15 -0.90 0.05 -1.65 -0.15 -1.65 -0.40 0 -2.10 3.80 -9 20.25 -3.60 8.60 -5.45 12.35 -6.90 14.15 -1.35 1.55 -2.30 2.05 -2.30 1.20z"/>
  <path d="M282.25 45.35 c-1.70 -0.50 -2.20 -1 -3.30 -3.20 l-1.35 -2.60 -1.40 1.50 c-2.05 2.15 -5.40 3.65 -7.30 3.25 -3.25 -0.65 -4.15 -2.95 -2.65 -6.80 2.60 -6.70 2.65 -7.60 0.65 -9.50 -0.60 -0.55 -1.20 -1 -1.40 -1 -0.15 0 -0.90 1.50 -1.70 3.40 -2.55 6 -2.80 6.40 -5.40 9.30 -3.20 3.65 -6.70 5.45 -10.40 5.50 -3.50 0.05 -5.70 -1.35 -6.35 -4.05 -0.45 -1.80 -0.55 -1.90 -2.35 -1.75 -2.30 0.20 -3.90 -0.80 -4.80 -2.85 -0.65 -1.55 -1.50 -2.10 -1.50 -0.90 0 1.05 -5.10 7.40 -6.70 8.40 -3.45 2.10 -5.20 0.85 -5.65 -4.10 l-0.30 -2.90 -1.50 1.05 c-0.95 0.70 -2.50 1.15 -4.30 1.30 -2.30 0.15 -3.10 0.50 -4.55 1.85 -2.80 2.60 -4.10 3.25 -6.30 3.25 -2.50 0 -3.70 -1.15 -4.05 -3.85 -0.50 -3.80 2.50 -10.30 5.10 -10.95 1.75 -0.45 2.05 0 1 1.60 -1.15 1.75 -2.75 6.55 -2.75 8.20 0 3.45 2.35 3.80 5.60 0.80 l1.90 -1.75 -1.50 -2.80 c-2.25 -4.25 -1.95 -7.95 0.80 -10.50 1.55 -1.45 3.90 -1.60 5.45 -0.45 1.65 1.25 1.40 5.70 -0.60 9.70 -0.85 1.80 -1.50 3.30 -1.35 3.45 0.50 0.50 3.80 0 5 -0.80 1.55 -1 2.70 -3.45 2.70 -5.60 0 -1.05 0.30 -1.60 1 -1.80 1.90 -0.60 2.10 0.10 1.75 5.75 -0.40 5.95 -0.15 7.50 1.25 7.50 2.35 0 8.15 -9.20 8.80 -13.85 0.40 -3.05 1.75 -4.70 3.10 -3.85 1.05 0.65 1.40 2.50 0.65 3.40 -0.95 1.15 -1.55 5.55 -1 7.45 0.60 2.20 1.05 2.50 2.85 2.10 1.10 -0.20 1.70 -0.95 3.05 -3.80 3.20 -6.95 9.35 -11.75 13.65 -10.70 3.05 0.75 2.75 5.40 -0.50 8.65 -2.20 2.20 -5.90 4.10 -8.60 4.45 -2.10 0.30 -2.65 1.25 -2.15 3.70 0.95 4.80 7.85 4 12.80 -1.50 2.70 -3 6.35 -10.80 6.35 -13.65 0 -1.50 0.35 -2.70 0.90 -3.40 1.25 -1.55 2.20 -0.90 1.80 1.20 -0.25 1.50 -0.10 1.85 2 3.50 3.45 2.85 3.70 4.25 1.80 9.80 -1.30 3.65 -1.50 4.70 -1 5.25 0.35 0.40 0.95 0.75 1.35 0.75 2 0 7.15 -3.95 7.15 -5.50 0 -0.90 2 -3 2.90 -3 1 0 5.15 -6.45 5.85 -9.10 1.10 -4.15 2.75 -4.45 2.75 -0.45 0 1.35 0.50 3.85 1.05 5.60 0.60 1.75 1.20 4.80 1.40 6.80 l0.30 3.60 1.70 -0.85 c0.95 -0.45 2.40 -1.80 3.25 -3 0.85 -1.20 1.60 -1.90 1.70 -1.60 0.35 1 -2.60 4.20 -5 5.50 -1.30 0.70 -2.90 1.95 -3.60 2.85 -0.80 0.90 -2 1.70 -2.95 1.90 -0.85 0.20 -1.95 0.40 -2.35 0.50 -0.40 0.10 -1.65 -0.10 -2.75 -0.40z m3.90 -1.90 c2.15 -1.15 2.35 -2.20 0.60 -2.65 -0.70 -0.20 -2.15 -1.10 -3.20 -2.05 -2.45 -2.25 -3.05 -2.20 -3.05 0.15 0 2.10 1.05 3.95 2.70 4.60 1.45 0.60 1.70 0.60 2.95 -0.05z m2.35 -6.05 c0 -2.40 -1.05 -8.15 -1.60 -8.65 -0.10 -0.10 -1.25 1.30 -2.60 3.10 -2.20 3.05 -2.35 3.40 -1.75 4.55 0.80 1.45 3.80 3.60 5.05 3.60 0.75 0 0.90 -0.45 0.90 -2.60z m-75.25 -3.50 c1.30 -2.75 1.70 -7.55 0.75 -8.15 -1.80 -1.10 -4 1.85 -4 5.30 0 2.30 0.95 5.45 1.60 5.45 0.25 0 1 -1.20 1.65 -2.60z m34.95 1.05 c4.25 -1.95 7.80 -5.85 7.80 -8.45 0 -0.80 -0.30 -1 -1.50 -1 -1.10 0 -2.15 0.60 -3.80 2.10 -2.95 2.70 -6.30 8.40 -4.95 8.40 0.15 0 1.25 -0.45 2.45 -1.05z"/>
  <path d="M105.55 18.80 c-0.85 -1 0.05 -2.50 1.90 -3.30 2.85 -1.15 4.50 0.65 2.55 2.80 -1.30 1.35 -3.55 1.60 -4.45 0.50z"/>
 </g>
</svg>