<?xml version="1.0" standalone="no"?>
<!DOCTYPE svg PUBLIC "-//W3C//DTD SVG 20010904//EN"
 "http://www.w3.org/TR/2001/REC-SVG-20010904/DTD/svg10.dtd">
<svg version="1.0" xmlns="http://www.w3.org/2000/svg"
 width="300.000000pt" height="60.000000pt" viewBox="0 0 300.000000 60.000000"
 preserveAspectRatio="xMidYMid meet">

<g transform="translate(0.000000,60.000000) scale(0.100000,-0.100000)"
fill="#000000" stroke="none">
<path d="M163 540 c-23 -12 -54 -38 -69 -57 -66 -87 -96 -230 -56 -269 16 -17
17 -14 23 64 7 95 49 193 100 236 42 36 102 36 125 1 35 -53 -2 -245 -60 -312
-22 -25 -23 -25 -54 -9 -40 21 -81 21 -89 0 -12 -31 11 -49 63 -49 30 0 59 -7
74 -18 28 -20 81 -22 98 -5 17 17 15 29 -3 22 -13 -6 -85 13 -85 22 0 2 15 24
34 48 50 66 71 129 71 213 0 65 -3 75 -26 99 -36 36 -92 41 -146 14z m-10
-358 c31 -21 26 -32 -13 -32 -30 0 -56 23 -45 40 9 15 26 12 58 -8z"/>
<path d="M969 518 c-40 -56 -55 -84 -100 -198 -38 -94 -38 -95 -21 -130 22
-46 42 -48 85 -10 35 30 36 31 39 8 5 -36 62 -38 98 -3 l27 26 6 -30 c6 -28
10 -31 46 -31 29 0 47 7 70 29 25 24 33 26 42 15 22 -26 80 -12 93 23 6 16 6
16 -12 0 -47 -42 -67 -3 -37 69 8 20 12 40 9 46 -10 16 -32 -11 -50 -60 -25
-67 -61 -104 -99 -100 -38 4 -42 27 -20 103 l16 55 52 2 52 2 -47 3 c-27 2
-48 6 -48 8 0 2 16 34 36 70 20 36 34 69 31 72 -15 14 -38 -11 -69 -76 -18
-39 -40 -70 -48 -71 -10 0 -11 -3 -4 -8 14 -9 -15 -104 -42 -133 -23 -26 -68
-22 -72 7 -2 11 11 46 28 79 17 32 28 60 25 64 -13 13 -42 -19 -71 -80 -53
-109 -104 -132 -104 -46 0 32 6 49 22 63 60 53 137 211 123 254 -9 30 -21 25
-56 -22z m17 -83 c-26 -58 -86 -148 -94 -141 -6 6 76 177 96 199 26 30 26 2
-2 -58z"/>
<path d="M1712 545 c-35 -15 -63 -64 -55 -96 8 -29 20 -22 27 14 10 53 62 97
81 68 3 -6 -33 -96 -81 -201 -47 -105 -83 -194 -80 -197 9 -9 44 58 102 197
31 74 60 139 65 144 4 5 7 -61 6 -145 -2 -183 7 -195 57 -73 36 89 97 207 103
200 2 -2 -5 -39 -16 -83 -11 -44 -23 -111 -27 -149 -6 -61 -4 -73 12 -89 19
-18 19 -17 26 73 6 81 45 278 63 325 5 12 2 17 -9 17 -20 0 -75 -85 -135 -210
l-46 -96 3 133 c3 110 1 138 -12 158 -19 28 -37 30 -84 10z"/>
<path d="M1060 435 c-9 -11 -10 -19 -3 -26 14 -14 56 7 50 24 -6 19 -32 20
-47 2z"/>
<path d="M2647 383 c-4 -3 -7 -18 -7 -32 0 -14 -11 -49 -24 -76 -37 -80 -116
-134 -151 -105 -21 18 -20 60 3 60 21 0 82 36 99 59 7 9 13 28 13 44 0 24 -4
27 -32 27 -42 0 -88 -37 -119 -94 -18 -35 -29 -46 -44 -44 -20 3 -23 22 -13
98 4 37 -25 32 -32 -5 -12 -56 -68 -145 -92 -145 -4 0 -8 29 -8 65 0 51 -3 65
-15 65 -8 0 -15 -8 -15 -18 0 -29 -29 -62 -56 -62 -22 0 -24 2 -13 21 32 60
27 119 -10 119 -35 0 -53 -29 -47 -74 2 -23 6 -52 8 -66 2 -19 -3 -26 -24 -34
-15 -5 -31 -6 -35 -3 -7 7 5 60 22 100 13 31 -23 19 -40 -14 -33 -63 -13 -129
34 -114 12 3 34 18 51 31 16 14 34 23 40 19 5 -3 23 1 40 10 l30 16 0 -36 c0
-65 41 -60 95 12 30 38 31 39 47 19 8 -11 24 -20 34 -19 12 1 26 -10 36 -28
14 -24 24 -29 53 -29 67 0 118 44 159 137 12 27 23 40 32 36 18 -7 18 -40 -1
-93 -11 -32 -12 -46 -4 -56 16 -20 57 -17 89 6 28 20 29 20 35 1 3 -10 20 -25
37 -32 26 -10 34 -10 53 2 12 8 38 25 59 38 20 13 42 33 48 45 8 16 5 15 -15
-6 -33 -35 -47 -35 -47 0 0 15 -7 49 -15 77 -9 27 -13 55 -11 62 3 7 -1 13 -9
13 -8 0 -15 -8 -15 -17 -1 -26 -19 -55 -79 -122 -37 -42 -62 -61 -78 -61 -27
0 -28 6 -7 55 19 46 12 77 -20 98 -17 12 -23 23 -19 37 5 19 -7 27 -20 13z
m-87 -57 c0 -21 -79 -86 -105 -86 -13 0 26 59 55 84 31 26 50 27 50 2z m-413
-2 c7 -20 -24 -87 -37 -79 -11 7 -13 55 -4 79 8 21 33 21 41 0z m738 -76 c8
-55 -5 -63 -43 -28 -27 25 -27 24 0 60 26 36 34 30 43 -32z m-5 -66 c6 -4 -23
-22 -37 -22 -17 0 -46 46 -38 59 4 7 18 2 38 -12 18 -12 34 -23 37 -25z"/>
<path d="M651 311 c-22 -22 -47 -53 -55 -70 -17 -33 -61 -71 -82 -71 -18 0
-18 39 1 83 18 44 19 57 3 57 -7 0 -27 -26 -43 -57 -35 -64 -58 -84 -77 -65
-12 12 -10 22 19 125 9 28 -15 19 -31 -12 -27 -50 -31 -109 -11 -131 24 -27
32 -25 66 11 24 26 29 28 29 12 0 -21 18 -43 36 -43 6 0 28 11 48 25 34 23 36
23 36 5 0 -43 56 -43 94 -1 l19 21 11 -22 c6 -13 18 -24 27 -26 18 -3 81 37
87 58 3 8 -9 2 -27 -13 -18 -15 -37 -27 -42 -27 -18 0 -20 28 -5 59 20 38 20
51 1 51 -8 0 -15 -4 -15 -9 0 -4 -18 -29 -41 -55 -58 -65 -87 -62 -68 8 14 49
75 118 103 114 12 -2 23 -13 27 -28 5 -21 7 -22 14 -7 13 31 -2 47 -45 47 -33
0 -47 -7 -79 -39z"/>
<path d="M1382 283 c-9 -21 -17 -45 -17 -53 -2 -54 -18 -80 -65 -109 -71 -44
-82 -114 -16 -97 18 4 35 22 54 58 28 53 33 58 95 109 20 17 37 38 37 48 0 10
-8 4 -20 -16 -16 -27 -47 -53 -63 -53 -2 0 4 24 14 53 21 59 24 97 8 97 -5 0
-18 -17 -27 -37z m-52 -169 c0 -17 -43 -74 -56 -74 -23 0 -16 37 12 59 27 21
44 27 44 15z"/>
</g>
</svg>
